# Blender v2.92.0 OBJ File: ''
# www.blender.org
mtllib rotated.mtl
o NP1.0Probe_Cube
v -2.273276 -0.048000 -11.089129
v -2.273276 -0.000000 -11.089129
v -2.999998 -0.000000 -11.200243
v -2.999998 -0.048000 -11.200243
v 0.035000 -0.048000 -0.200242
v 0.035002 -0.048000 -10.200241
v 0.035002 0.000000 -10.200241
v 0.035000 0.000000 -0.200242
v -0.034998 -0.000000 -10.200241
v -0.035000 -0.000000 -0.200242
v -0.035000 -0.048000 -0.200242
v 0.000000 -0.048000 -0.000242
v -0.000000 0.000000 -0.000242
v -0.034998 -0.048000 -10.200241
v 3.000002 0.000000 -11.200241
v 3.000003 0.000000 -21.200239
v -2.999997 -0.000000 -21.200239
v 2.273280 0.000000 -11.089129
v 2.273280 -0.048000 -11.089129
v 3.000002 -0.048000 -11.200241
v -2.999997 -0.048000 -21.200239
v 3.000003 -0.048000 -21.200239
v 0.000000 -0.048000 -0.000242
v -0.000000 0.000000 -0.000242
v -0.044109 -0.048000 -10.311354
v 0.044113 -0.048000 -10.311354
v -0.162248 -0.048000 -10.422463
v 0.162252 -0.048000 -10.422463
v -0.235498 -0.048000 -10.533573
v 0.235502 -0.048000 -10.533575
v -0.370498 -0.048000 -10.644686
v 0.370502 -0.048000 -10.644686
v -0.611198 -0.048000 -10.755796
v 0.611202 -0.048000 -10.755796
v -0.910498 -0.048000 -10.866908
v 0.910502 -0.048000 -10.866909
v -1.409331 -0.048000 -10.978020
v 1.409335 -0.048000 -10.978020
v 0.044113 0.000000 -10.311354
v -0.044109 -0.000000 -10.311354
v 0.162252 0.000000 -10.422463
v -0.162248 -0.000000 -10.422463
v 0.235502 0.000000 -10.533573
v -0.235498 -0.000000 -10.533575
v 0.370502 0.000000 -10.644686
v -0.370498 -0.000000 -10.644686
v 0.611202 0.000000 -10.755796
v -0.611198 -0.000000 -10.755796
v 0.910502 0.000000 -10.866908
v -0.910498 -0.000000 -10.866909
v 1.409335 0.000000 -10.978020
v -1.409331 -0.000000 -10.978020
vt 0.625000 0.500000
vt 0.625000 0.250000
vt 0.625000 0.250000
vt 0.625000 0.500000
vt 0.375000 0.750000
vt 0.625000 0.750000
vt 0.625000 1.000000
vt 0.375000 1.000000
vt 0.375000 0.000000
vt 0.625000 0.000000
vt 0.625000 0.250000
vt 0.375000 0.250000
vt 0.375000 0.500000
vt 0.375000 0.500000
vt 0.375000 0.250000
vt 0.625000 0.500000
vt 0.625000 0.000000
vt 0.625000 0.000000
vt 0.625000 0.250000
vt 0.625000 1.000000
vt 0.625000 0.750000
vt 0.625000 0.750000
vt 0.625000 1.000000
vt 0.625000 0.000000
vt 0.625000 0.500000
vt 0.875000 0.500000
vt 0.875000 0.750000
vt 0.625000 0.750000
vt 0.625000 1.000000
vt 0.125000 0.500000
vt 0.375000 0.750000
vt 0.125000 0.750000
vt 0.375000 1.000000
vt 0.375000 0.000000
vt 0.625000 0.500000
vt 0.625000 0.750000
vt 0.625000 0.500000
vt 0.625000 0.750000
vt 0.625000 0.500000
vt 0.625000 0.750000
vt 0.625000 0.500000
vt 0.625000 0.750000
vt 0.625000 0.500000
vt 0.625000 0.750000
vt 0.625000 0.500000
vt 0.625000 0.750000
vt 0.625000 0.500000
vt 0.625000 0.750000
vt 0.625000 0.000000
vt 0.625000 0.250000
vt 0.625000 0.000000
vt 0.625000 0.250000
vt 0.625000 0.000000
vt 0.625000 0.250000
vt 0.625000 0.000000
vt 0.625000 0.250000
vt 0.625000 0.000000
vt 0.625000 0.250000
vt 0.625000 0.000000
vt 0.625000 0.250000
vt 0.625000 0.000000
vt 0.625000 0.250000
vt 0.625000 1.000000
vt 0.625000 1.000000
vt 0.625000 1.000000
vt 0.625000 1.000000
vt 0.625000 1.000000
vt 0.625000 1.000000
vt 0.625000 1.000000
vn -0.1511 0.0000 0.9885
vn 1.0000 0.0000 0.0000
vn -0.0000 1.0000 -0.0000
vn -0.9850 -0.0000 0.1724
vn 0.0000 -1.0000 -0.0000
vn -1.0000 -0.0000 -0.0000
vn 0.1511 0.0000 0.9885
vn 0.0000 0.0000 -1.0000
vn 0.0000 0.0000 1.0000
vn 0.9850 0.0000 0.1724
vn 0.9967 0.0000 0.0817
vn 0.6851 0.0000 0.7284
vn 0.8349 -0.0000 0.5504
vn 0.6355 -0.0000 0.7721
vn 0.4191 0.0000 0.9079
vn 0.3480 -0.0000 0.9375
vn 0.2174 -0.0000 0.9761
vn 0.1276 0.0000 0.9918
vn -0.9967 0.0000 0.0817
vn -0.6851 -0.0000 0.7284
vn -0.8349 0.0000 0.5504
vn -0.6355 0.0000 0.7721
vn -0.4191 0.0000 0.9079
vn -0.3480 0.0000 0.9375
vn -0.2174 0.0000 0.9761
vn -0.1276 0.0000 0.9918
usemtl Material.001
s 1
f 1/1/1 2/2/1 3/3/1 4/4/1
f 5/5/2 6/6/2 7/7/2 8/8/2
f 8/9/3 7/10/3 9/11/3 10/12/3
f 10/12/4 11/13/4 12/14/4 13/15/4
f 11/13/5 14/16/5 6/6/5 5/5/5
f 10/12/6 9/11/6 14/16/6 11/13/6
f 3/3/3 15/17/3 16/18/3 17/19/3
f 18/20/7 19/21/7 20/22/7 15/23/7
f 2/2/3 18/24/3 15/17/3 3/3/3
f 19/21/5 1/1/5 4/4/5 20/22/5
f 21/25/8 17/26/8 16/27/8 22/28/8
f 15/23/2 20/22/2 22/28/2 16/29/2
f 4/4/6 3/3/6 17/19/6 21/25/6
f 20/22/5 4/4/5 21/25/5 22/28/5
f 13/30/9 12/14/9 23/31/9 24/32/9
f 5/5/10 8/8/10 24/33/10 23/31/10
f 8/9/3 10/12/3 13/15/3 24/34/3
f 11/13/5 5/5/5 23/31/5 12/14/5
f 6/6/5 14/16/5 25/35/5 26/36/5
f 26/36/5 25/35/5 27/37/5 28/38/5
f 28/38/5 27/37/5 29/39/5 30/40/5
f 30/40/5 29/39/5 31/41/5 32/42/5
f 32/42/5 31/41/5 33/43/5 34/44/5
f 34/44/5 33/43/5 35/45/5 36/46/5
f 36/46/5 35/45/5 37/47/5 38/48/5
f 38/48/5 37/47/5 1/1/5 19/21/5
f 9/11/3 7/10/3 39/49/3 40/50/3
f 40/50/3 39/49/3 41/51/3 42/52/3
f 42/52/3 41/51/3 43/53/3 44/54/3
f 44/54/3 43/53/3 45/55/3 46/56/3
f 46/56/3 45/55/3 47/57/3 48/58/3
f 48/58/3 47/57/3 49/59/3 50/60/3
f 50/60/3 49/59/3 51/61/3 52/62/3
f 52/62/3 51/61/3 18/24/3 2/2/3
f 7/7/11 6/6/11 26/36/11 39/63/11
f 39/63/12 26/36/12 28/38/12 41/64/12
f 41/64/13 28/38/13 30/40/13 43/65/13
f 43/65/14 30/40/14 32/42/14 45/66/14
f 45/66/15 32/42/15 34/44/15 47/67/15
f 47/67/16 34/44/16 36/46/16 49/68/16
f 49/68/17 36/46/17 38/48/17 51/69/17
f 51/69/18 38/48/18 19/21/18 18/20/18
f 14/16/19 9/11/19 40/50/19 25/35/19
f 25/35/20 40/50/20 42/52/20 27/37/20
f 27/37/21 42/52/21 44/54/21 29/39/21
f 29/39/22 44/54/22 46/56/22 31/41/22
f 31/41/23 46/56/23 48/58/23 33/43/23
f 33/43/24 48/58/24 50/60/24 35/45/24
f 35/45/25 50/60/25 52/62/25 37/47/25
f 37/47/26 52/62/26 2/2/26 1/1/26
